<svg width="40" height="40" viewBox="0 0 40 40" fill="none" xmlns="http://www.w3.org/2000/svg">
  <!-- Circle background -->
  <circle cx="20" cy="20" r="19" stroke="#97f91b" stroke-width="2" fill="none"/>
  
  <!-- Phone handset -->
  <path d="M14 12C14 11.4477 14.4477 11 15 11H16C17.1046 11 18 11.8954 18 13V15C18 16.1046 17.1046 17 16 17H15C14.4477 17 14 16.5523 14 16V12Z" fill="#97f91b"/>
  <path d="M26 24C26 23.4477 25.5523 23 25 23H24C22.8954 23 22 23.8954 22 25V27C22 28.1046 22.8954 29 24 29H25C25.5523 29 26 28.5523 26 28V24Z" fill="#97f91b"/>
  
  <!-- Connecting curve -->
  <path d="M16 17C16 17 18 19 20 20C22 21 24 23 24 23" stroke="#97f91b" stroke-width="2" stroke-linecap="round"/>
  
  <!-- Waveform -->
  <path d="M20 14L20 12M20 20L20 18M20 26L20 24" stroke="#97f91b" stroke-width="1.5" stroke-linecap="round" opacity="0.6"/>
  <path d="M23 16L23 14M23 22L23 20" stroke="#97f91b" stroke-width="1.5" stroke-linecap="round" opacity="0.4"/>
  <path d="M17 16L17 14M17 22L17 20" stroke="#97f91b" stroke-width="1.5" stroke-linecap="round" opacity="0.4"/>
</svg>
